<svg width="32" height="32" viewBox="0 0 32 32" fill="none" xmlns="http://www.w3.org/2000/svg">
<path d="M11.6552 27.8497C15 28.6971 21.333 25.3226 21.0849 21.1859C21.0089 19.9182 21.0849 18.5935 20.1194 17.0381C15.8493 11.8534 9.6646 14.8123 7.45172 17.9825C6.04755 19.9942 8.31034 27.0022 11.6552 27.8497Z" fill="#F2F0E3"/>
<path d="M7.81954 10.4491C8.89784 12.1388 8.37605 14.4114 7.08602 15.3922C5.796 16.3731 3.8761 15.7984 2.7978 14.1087C1.7195 12.419 1.69028 10.0317 2.98031 9.05084C4.27033 8.07001 6.74124 8.75937 7.81954 10.4491Z" fill="#F2F0E3"/>
<path d="M27.552 21.7049C25.8092 22.4934 23.8869 21.4511 23.2849 19.8659C22.6829 18.2807 23.6076 16.3564 25.3504 15.5679C27.0932 14.7793 29.236 15.2586 29.838 16.8438C30.44 18.4291 29.2948 20.9164 27.552 21.7049Z" fill="#F2F0E3"/>
<path d="M16.0747 8.23785C16.1233 10.5384 14.7546 12.2921 13.1829 12.3317C11.6112 12.3713 10.1455 10.2639 10.0968 7.96334C10.0482 5.66276 11.435 4.04018 13.0067 4.00059C14.5785 3.96099 16.026 5.93727 16.0747 8.23785Z" fill="#F2F0E3"/>
<path d="M24.6145 12.624C23.4541 14.5453 21.1671 15.0224 19.8545 14.0779C18.5419 13.1334 18.4367 10.49 19.597 8.56876C20.7574 6.64748 23.0549 6.08671 24.3675 7.0312C25.6801 7.97569 25.7748 10.7028 24.6145 12.624Z" fill="#F2F0E3"/>
</svg>
